# xmcd
#
# Track frame offsets: 
#        150
#        29114
#        52445
#        91434
#        105166
#        130835
#        161314
#        179465
#        199787
#        218921
#        246492
#        273704
#        294765
#
# Disc length: 4242 seconds
#
# Revision: 5
# Processed by: cddbd v1.5.2PL0 Copyright (c) Steve Scherf et al.
# Submitted via: ExactAudioCopy v0.99pb3
#
DISCID=c610900d
DTITLE=Rory Gallagher - Live ! In Europe
DYEAR=1972
DGENRE=Blues
TTITLE0=Messin' With The Kid
TTITLE1=Laundromat
TTITLE2=I Could've Had Religion
TTITLE3=Pistol Slapper Blues
TTITLE4=Going To My Home Town
TTITLE5=Bullfrog Blues
TTITLE6=Shin Kicker
TTITLE7=Wayward Child
TTITLE8=Brute Force And Arrogance
TTITLE9=Moonchild
TTITLE10=Follow Me
TTITLE11=Bought And Sold
TTITLE12=Shadow Play
EXTD=
EXTT0=
EXTT1=
EXTT2=
EXTT3=
EXTT4=
EXTT5=
EXTT6=
EXTT7=
EXTT8=
EXTT9=
EXTT10=
EXTT11=
EXTT12=
PLAYORDER=
